<svg viewBox="0 0 64 64" fill="none" xmlns="http://www.w3.org/2000/svg">
    <path d="M29.516 1.6608C30.4312 -0.5536 33.5688 -0.5536 34.484 1.6608C35.252 3.5168 37.7096 3.9064 39.0128 2.3784C40.568 0.5544 43.5512 1.524 43.7376 3.9136C43.8936 5.916 46.1112 7.0456 47.8232 5.9952C49.8656 4.7416 52.4032 6.5856 51.8424 8.9152C51.372 10.868 53.132 12.6272 55.0848 12.1576C57.4144 11.5968 59.2584 14.1336 58.0048 16.1768C56.9544 17.8888 58.084 20.1064 60.0864 20.2624C62.476 20.4488 63.4448 23.432 61.6224 24.9872C60.0936 26.2912 60.4824 28.7488 62.3392 29.516C64.5536 30.4312 64.5536 33.5688 62.3392 34.484C60.4832 35.252 60.0936 37.7096 61.6216 39.0128C63.4456 40.568 62.476 43.5512 60.0864 43.7376C58.084 43.8936 56.9544 46.1112 58.0048 47.8232C59.2584 49.8656 57.4144 52.4032 55.0848 51.8424C53.132 51.372 51.3728 53.132 51.8424 55.0848C52.4032 57.4144 49.8664 59.2584 47.8232 58.0048C46.1112 56.9544 43.8936 58.084 43.7376 60.0864C43.5512 62.476 40.568 63.4448 39.0128 61.6224C37.7088 60.0936 35.2512 60.4824 34.484 62.3392C33.5688 64.5536 30.4312 64.5536 29.516 62.3392C28.748 60.4832 26.2904 60.0936 24.9872 61.6216C23.432 63.4456 20.4488 62.476 20.2624 60.0864C20.1064 58.084 17.8888 56.9544 16.1768 58.0048C14.1344 59.2584 11.5968 57.4144 12.1576 55.0848C12.628 53.132 10.868 51.3728 8.9152 51.8424C6.5856 52.4032 4.7416 49.8664 5.9952 47.8232C7.0456 46.1112 5.916 43.8936 3.9136 43.7376C1.524 43.5512 0.5552 40.568 2.3776 39.0128C3.9064 37.7088 3.5176 35.2512 1.6608 34.484C-0.5536 33.5688 -0.5536 30.4312 1.6608 29.516C3.5168 28.748 3.9064 26.2904 2.3784 24.9872C0.5544 23.432 1.524 20.4488 3.9136 20.2624C5.916 20.1064 7.0456 17.8888 5.9952 16.1768C4.7416 14.1344 6.5856 11.5968 8.9152 12.1576C10.868 12.628 12.6272 10.868 12.1576 8.9152C11.5968 6.5856 14.1336 4.7416 16.1768 5.9952C17.8888 7.0456 20.1064 5.916 20.2624 3.9136C20.4488 1.524 23.432 0.5552 24.9872 2.3776C26.2912 3.9064 28.7488 3.5176 29.516 1.6608Z" fill="#AD9058"/>
    <path d="M23.3622 28.6364L25.8451 32.8736L28.3281 28.6364H30.1633L26.8167 33.8182L30.1633 39H28.3281L25.8451 34.9787L23.3622 39H21.5269L24.8196 33.8182L21.5269 28.6364H23.3622ZM32.4084 39V37.7855L36.9695 32.7926C37.5048 32.2079 37.9456 31.6996 38.2919 31.2678C38.6383 30.8314 38.8947 30.4221 39.0611 30.0398C39.2321 29.6529 39.3175 29.2481 39.3175 28.8253C39.3175 28.3395 39.2006 27.9189 38.9667 27.5636C38.7373 27.2082 38.4224 26.9338 38.0221 26.7404C37.6217 26.547 37.1719 26.4503 36.6726 26.4503C36.1419 26.4503 35.6785 26.5605 35.2827 26.7809C34.8914 26.9968 34.5878 27.3004 34.3718 27.6918C34.1604 28.0831 34.0547 28.5419 34.0547 29.0682H32.4624C32.4624 28.2585 32.6491 27.5478 33.0224 26.9361C33.3958 26.3243 33.904 25.8475 34.5473 25.5057C35.195 25.1638 35.9214 24.9929 36.7266 24.9929C37.5363 24.9929 38.2537 25.1638 38.879 25.5057C39.5042 25.8475 39.9945 26.3086 40.3498 26.8888C40.7052 27.4691 40.8829 28.1146 40.8829 28.8253C40.8829 29.3336 40.7906 29.8306 40.6062 30.3164C40.4263 30.7977 40.1114 31.3352 39.6616 31.929C39.2163 32.5182 38.5978 33.2379 37.8062 34.0881L34.7025 37.4077V37.5156H41.1258V39H32.4084Z" fill="white"/>
</svg>
