<svg viewBox="0 0 21 20" fill="none" xmlns="http://www.w3.org/2000/svg">
    <path d="M11.125 2.5V5C11.125 5.16576 11.0592 5.32473 10.9419 5.44194C10.8247 5.55915 10.6658 5.625 10.5 5.625C10.3342 5.625 10.1753 5.55915 10.0581 5.44194C9.94085 5.32473 9.875 5.16576 9.875 5V2.5C9.875 2.33424 9.94085 2.17527 10.0581 2.05806C10.1753 1.94085 10.3342 1.875 10.5 1.875C10.6658 1.875 10.8247 1.94085 10.9419 2.05806C11.0592 2.17527 11.125 2.33424 11.125 2.5ZM18 9.375H15.5C15.3342 9.375 15.1753 9.44085 15.0581 9.55806C14.9408 9.67527 14.875 9.83424 14.875 10C14.875 10.1658 14.9408 10.3247 15.0581 10.4419C15.1753 10.5592 15.3342 10.625 15.5 10.625H18C18.1658 10.625 18.3247 10.5592 18.4419 10.4419C18.5592 10.3247 18.625 10.1658 18.625 10C18.625 9.83424 18.5592 9.67527 18.4419 9.55806C18.3247 9.44085 18.1658 9.375 18 9.375ZM14.4773 13.0938C14.3592 12.9815 14.2018 12.9198 14.0389 12.9219C13.8759 12.924 13.7202 12.9897 13.6049 13.1049C13.4897 13.2202 13.424 13.3759 13.4219 13.5389C13.4198 13.7018 13.4815 13.8592 13.5938 13.9773L15.3609 15.7453C15.4782 15.8626 15.6373 15.9285 15.8031 15.9285C15.969 15.9285 16.128 15.8626 16.2453 15.7453C16.3626 15.628 16.4285 15.469 16.4285 15.3031C16.4285 15.1373 16.3626 14.9782 16.2453 14.8609L14.4773 13.0938ZM10.5 14.375C10.3342 14.375 10.1753 14.4408 10.0581 14.5581C9.94085 14.6753 9.875 14.8342 9.875 15V17.5C9.875 17.6658 9.94085 17.8247 10.0581 17.9419C10.1753 18.0592 10.3342 18.125 10.5 18.125C10.6658 18.125 10.8247 18.0592 10.9419 17.9419C11.0592 17.8247 11.125 17.6658 11.125 17.5V15C11.125 14.8342 11.0592 14.6753 10.9419 14.5581C10.8247 14.4408 10.6658 14.375 10.5 14.375ZM6.52266 13.0938L4.75469 14.8609C4.63741 14.9782 4.57153 15.1373 4.57153 15.3031C4.57153 15.469 4.63741 15.628 4.75469 15.7453C4.87196 15.8626 5.03102 15.9285 5.19687 15.9285C5.36273 15.9285 5.52179 15.8626 5.63906 15.7453L7.40625 13.9773C7.51851 13.8592 7.58017 13.7018 7.57809 13.5389C7.576 13.3759 7.51033 13.2202 7.39508 13.1049C7.27983 12.9897 7.12412 12.924 6.96114 12.9219C6.79816 12.9198 6.64082 12.9815 6.52266 13.0938ZM6.125 10C6.125 9.83424 6.05915 9.67527 5.94194 9.55806C5.82473 9.44085 5.66576 9.375 5.5 9.375H3C2.83424 9.375 2.67527 9.44085 2.55806 9.55806C2.44085 9.67527 2.375 9.83424 2.375 10C2.375 10.1658 2.44085 10.3247 2.55806 10.4419C2.67527 10.5592 2.83424 10.625 3 10.625H5.5C5.66576 10.625 5.82473 10.5592 5.94194 10.4419C6.05915 10.3247 6.125 10.1658 6.125 10ZM5.63906 4.25469C5.52179 4.13741 5.36273 4.07153 5.19687 4.07153C5.03102 4.07153 4.87196 4.13741 4.75469 4.25469C4.63741 4.37196 4.57153 4.53102 4.57153 4.69687C4.57153 4.86273 4.63741 5.02179 4.75469 5.13906L6.52266 6.90625C6.64082 7.01851 6.79816 7.08017 6.96114 7.07809C7.12412 7.076 7.27983 7.01033 7.39508 6.89508C7.51033 6.77983 7.576 6.62412 7.57809 6.46114C7.58017 6.29816 7.51851 6.14082 7.40625 6.02266L5.63906 4.25469Z" fill="white"/>
</svg>
