<svg viewBox="0 0 64 64" fill="none" xmlns="http://www.w3.org/2000/svg" xmlns:xlink="http://www.w3.org/1999/xlink">
    <path d="M64 24.4762L44.6954 38.8571L52.9688 64L32.0476 48.381L11.1263 64L18.8291 40.4762H24.0594V32.4762H16.0713V24.4762H24.0594L32.0476 0L40.0357 24.4762H64Z" fill="#ffffffaa"/>
    <path d="M64 24.4762L44.6954 38.8571L52.9688 64L32.0476 48.381L11.1263 64L18.8291 40.4762H24.0594V32.4762H16.0713V24.4762H24.0594L32.0476 0L40.0357 24.4762H64Z" fill="#ffffffaa" fill-opacity="0.2"/>
    <path d="M9.89005 38.5714H15.9762V32.4762H9.89005V38.5714Z" fill="#ffffffaa"/>
    <path d="M9.89005 38.5714H15.9762V32.4762H9.89005V38.5714Z" fill="#ffffffaa" fill-opacity="0.2"/>
    <path d="M5.7058 24.4762H0V30.0952H5.7058V24.4762Z" fill="#ffffffaa"/>
    <path d="M5.7058 24.4762H0V30.0952H5.7058V24.4762Z" fill="#ffffffaa" fill-opacity="0.2"/>
</svg>
