<svg viewBox="0 0 30 30" fill="none" xmlns="http://www.w3.org/2000/svg">
    <path d="M26.25 16.875V24.375C26.25 24.6236 26.1512 24.8621 25.9754 25.0379C25.7996 25.2137 25.5611 25.3125 25.3125 25.3125H4.6875C4.43886 25.3125 4.2004 25.2137 4.02459 25.0379C3.84877 24.8621 3.75 24.6236 3.75 24.375V16.875C3.75 16.6264 3.84877 16.3879 4.02459 16.2121C4.2004 16.0363 4.43886 15.9375 4.6875 15.9375C4.93614 15.9375 5.1746 16.0363 5.35041 16.2121C5.52623 16.3879 5.625 16.6264 5.625 16.875V23.4375H24.375V16.875C24.375 16.6264 24.4738 16.3879 24.6496 16.2121C24.8254 16.0363 25.0639 15.9375 25.3125 15.9375C25.5611 15.9375 25.7996 16.0363 25.9754 16.2121C26.1512 16.3879 26.25 16.6264 26.25 16.875ZM14.3367 17.5383C14.4238 17.6254 14.5272 17.6946 14.641 17.7418C14.7548 17.789 14.8768 17.8132 15 17.8132C15.1232 17.8132 15.2452 17.789 15.359 17.7418C15.4728 17.6946 15.5762 17.6254 15.6633 17.5383L20.3508 12.8508C20.4379 12.7637 20.507 12.6603 20.5541 12.5465C20.6013 12.4327 20.6255 12.3107 20.6255 12.1875C20.6255 12.0643 20.6013 11.9423 20.5541 11.8285C20.507 11.7147 20.4379 11.6113 20.3508 11.5242C20.2637 11.4371 20.1603 11.368 20.0465 11.3209C19.9327 11.2737 19.8107 11.2495 19.6875 11.2495C19.5643 11.2495 19.4423 11.2737 19.3285 11.3209C19.2147 11.368 19.1113 11.4371 19.0242 11.5242L15.9375 14.6121V3.75C15.9375 3.50136 15.8387 3.2629 15.6629 3.08709C15.4871 2.91127 15.2486 2.8125 15 2.8125C14.7514 2.8125 14.5129 2.91127 14.3371 3.08709C14.1613 3.2629 14.0625 3.50136 14.0625 3.75V14.6121L10.9758 11.5242C10.7999 11.3483 10.5613 11.2495 10.3125 11.2495C10.0637 11.2495 9.82513 11.3483 9.64922 11.5242C9.47331 11.7001 9.37448 11.9387 9.37448 12.1875C9.37448 12.4363 9.47331 12.6749 9.64922 12.8508L14.3367 17.5383Z" fill="currentColor"/>
</svg>
