<svg  viewBox="0 0 20 20" fill="none" xmlns="http://www.w3.org/2000/svg">
    <path fill-rule="evenodd" clip-rule="evenodd" d="M17.108 3.77501C17.2184 3.65654 17.2785 3.49983 17.2756 3.33791C17.2728 3.17599 17.2072 3.02151 17.0927 2.907C16.9781 2.79249 16.8237 2.72689 16.6617 2.72404C16.4998 2.72118 16.3431 2.78128 16.2246 2.89168L2.89131 16.225C2.8299 16.2822 2.78065 16.3512 2.74649 16.4279C2.71233 16.5046 2.69396 16.5873 2.69248 16.6712C2.691 16.7552 2.70644 16.8385 2.73787 16.9163C2.7693 16.9942 2.81609 17.0649 2.87544 17.1242C2.93479 17.1836 3.00549 17.2303 3.08331 17.2618C3.16113 17.2932 3.24449 17.3087 3.32841 17.3072C3.41233 17.3057 3.49509 17.2873 3.57175 17.2532C3.64842 17.219 3.71742 17.1698 3.77464 17.1083L6.30381 14.5792C7.40214 15.0858 8.65964 15.4167 9.99964 15.4167C12.1813 15.4167 14.143 14.5408 15.5563 13.4558C16.2646 12.9125 16.8455 12.3092 17.2521 11.7225C17.6521 11.1458 17.9163 10.5408 17.9163 10C17.9163 9.45918 17.6521 8.85418 17.2521 8.27835C16.8455 7.69085 16.2646 7.08751 15.5563 6.54501C15.3307 6.37113 15.0919 6.20418 14.8396 6.04418L17.108 3.77501ZM12.608 8.27668L11.6913 9.19168C11.8584 9.54156 11.9129 9.93465 11.8474 10.3168C11.7818 10.699 11.5994 11.0514 11.3252 11.3256C11.051 11.5997 10.6986 11.7822 10.3164 11.8477C9.93428 11.9133 9.54119 11.8588 9.19131 11.6917L8.27464 12.6083C8.87558 13.0062 9.59559 13.1842 10.3127 13.112C11.0298 13.0399 11.6999 12.7221 12.2096 12.2124C12.7192 11.7028 13.037 11.0327 13.1091 10.3156C13.1813 9.59846 13.0034 8.87846 12.6055 8.27751" fill="currentColor"/>
    <path d="M10.558 6.92498C10.5923 6.9314 10.6276 6.92945 10.661 6.9193C10.6944 6.90914 10.7248 6.89108 10.7497 6.86665L12.3747 5.24165C12.3999 5.2168 12.4182 5.18576 12.4277 5.15163C12.4373 5.1175 12.4376 5.08147 12.4289 5.04714C12.4201 5.01281 12.4025 4.98139 12.3778 4.956C12.353 4.93062 12.3221 4.91216 12.288 4.90248C11.5433 4.69243 10.7734 4.58505 9.99967 4.58331C7.81801 4.58331 5.85634 5.45915 4.44301 6.54415C3.73467 7.08748 3.15384 7.69081 2.74634 8.27748C2.34634 8.85415 2.08301 9.45915 2.08301 9.99998C2.08301 10.5408 2.34717 11.1458 2.74634 11.7216C3.14299 12.2781 3.6115 12.7797 4.13967 13.2133C4.1792 13.246 4.22954 13.2627 4.28076 13.26C4.33198 13.2574 4.38036 13.2357 4.41634 13.1991L6.86634 10.7491C6.89077 10.7243 6.90884 10.6938 6.91899 10.6605C6.92915 10.6271 6.9311 10.5918 6.92467 10.5575C6.89134 10.3769 6.87467 10.1911 6.87467 9.99998C6.87463 9.54229 6.97513 9.09017 7.16906 8.6756C7.36299 8.26102 7.64562 7.89411 7.99696 7.60079C8.34831 7.30747 8.7598 7.0949 9.20234 6.97813C9.64489 6.86135 10.1077 6.84321 10.558 6.92498Z" fill="currentColor"/>
</svg>
